<svg width="1897" height="1024" viewBox="0 0 1897 1024" fill="none" xmlns="http://www.w3.org/2000/svg">
<g clip-path="url(#clip0_1_2)">
<rect width="1897" height="1024" fill="white"/>
<rect x="948" width="960" height="1024" fill="#DFE3EB" fill-opacity="0.6"/>
<ellipse cx="1418.38" cy="408.5" rx="2.62195" ry="2.5" fill="#0A1931" fill-opacity="0.86"/>
<ellipse cx="1405.79" cy="408.5" rx="2.62195" ry="2.5" fill="#0A1931" fill-opacity="0.86"/>
<ellipse cx="1393.21" cy="408.5" rx="2.62195" ry="2.5" fill="#0A1931" fill-opacity="0.86"/>
<ellipse cx="1380.62" cy="408.5" rx="2.62195" ry="2.5" fill="#0A1931" fill-opacity="0.86"/>
<ellipse cx="1418.38" cy="422.5" rx="2.62195" ry="2.5" fill="#0A1931" fill-opacity="0.86"/>
<ellipse cx="1405.79" cy="422.5" rx="2.62195" ry="2.5" fill="#0A1931" fill-opacity="0.86"/>
<ellipse cx="1393.21" cy="422.5" rx="2.62195" ry="2.5" fill="#0A1931" fill-opacity="0.86"/>
<ellipse cx="1380.62" cy="422.5" rx="2.62195" ry="2.5" fill="#0A1931" fill-opacity="0.86"/>
<ellipse cx="1418.38" cy="436.5" rx="2.62195" ry="2.5" fill="#0A1931" fill-opacity="0.86"/>
<ellipse cx="1405.79" cy="436.5" rx="2.62195" ry="2.5" fill="#0A1931" fill-opacity="0.86"/>
<ellipse cx="1393.21" cy="436.5" rx="2.62195" ry="2.5" fill="#0A1931" fill-opacity="0.86"/>
<ellipse cx="1380.62" cy="436.5" rx="2.62195" ry="2.5" fill="#0A1931" fill-opacity="0.86"/>
<ellipse cx="1418.38" cy="450.5" rx="2.62195" ry="2.5" fill="#0A1931" fill-opacity="0.86"/>
<ellipse cx="1405.79" cy="450.5" rx="2.62195" ry="2.5" fill="#0A1931" fill-opacity="0.86"/>
<ellipse cx="1393.21" cy="450.5" rx="2.62195" ry="2.5" fill="#0A1931" fill-opacity="0.86"/>
<ellipse cx="1380.62" cy="450.5" rx="2.62195" ry="2.5" fill="#0A1931" fill-opacity="0.86"/>
<ellipse cx="1418.38" cy="464.5" rx="2.62195" ry="2.5" fill="#0A1931" fill-opacity="0.86"/>
<ellipse cx="1405.79" cy="464.5" rx="2.62195" ry="2.5" fill="#0A1931" fill-opacity="0.86"/>
<ellipse cx="1393.21" cy="464.5" rx="2.62195" ry="2.5" fill="#0A1931" fill-opacity="0.86"/>
<ellipse cx="1380.62" cy="464.5" rx="2.62195" ry="2.5" fill="#0A1931" fill-opacity="0.86"/>
<ellipse cx="1418.38" cy="478.5" rx="2.62195" ry="2.5" fill="#0A1931" fill-opacity="0.86"/>
<ellipse cx="1405.79" cy="478.5" rx="2.62195" ry="2.5" fill="#0A1931" fill-opacity="0.86"/>
<ellipse cx="1393.21" cy="478.5" rx="2.62195" ry="2.5" fill="#0A1931" fill-opacity="0.86"/>
<ellipse cx="1380.62" cy="478.5" rx="2.62195" ry="2.5" fill="#0A1931" fill-opacity="0.86"/>
<ellipse cx="1418.38" cy="492.5" rx="2.62195" ry="2.5" fill="#0A1931" fill-opacity="0.86"/>
<ellipse cx="1405.79" cy="492.5" rx="2.62195" ry="2.5" fill="#0A1931" fill-opacity="0.86"/>
<ellipse cx="1393.21" cy="492.5" rx="2.62195" ry="2.5" fill="#0A1931" fill-opacity="0.86"/>
<ellipse cx="1380.62" cy="492.5" rx="2.62195" ry="2.5" fill="#0A1931" fill-opacity="0.86"/>
<ellipse cx="1418.38" cy="506.5" rx="2.62195" ry="2.5" fill="#0A1931" fill-opacity="0.86"/>
<ellipse cx="1405.79" cy="506.5" rx="2.62195" ry="2.5" fill="#0A1931" fill-opacity="0.86"/>
<ellipse cx="1393.21" cy="506.5" rx="2.62195" ry="2.5" fill="#0A1931" fill-opacity="0.86"/>
<ellipse cx="1380.62" cy="506.5" rx="2.62195" ry="2.5" fill="#0A1931" fill-opacity="0.86"/>
</g>
<defs>
<clipPath id="clip0_1_2">
<rect width="1897" height="1024" fill="white"/>
</clipPath>
</defs>
</svg>
