<svg width="1320" height="312" viewBox="0 0 1320 312" fill="none" xmlns="http://www.w3.org/2000/svg">
<g clip-path="url(#clip0_1_2)">
<rect width="1320" height="312" fill="#0A1931"/>
<circle cx="127" cy="275" r="166" fill="white" fill-opacity="0.04"/>
<circle cx="149.5" cy="89.5" r="2.5" fill="white" fill-opacity="0.31"/>
<circle cx="166.5" cy="89.5" r="2.5" fill="white" fill-opacity="0.31"/>
<circle cx="183.5" cy="89.5" r="2.5" fill="white" fill-opacity="0.31"/>
<circle cx="200.5" cy="89.5" r="2.5" fill="white" fill-opacity="0.31"/>
<circle cx="149.5" cy="106.5" r="2.5" fill="white" fill-opacity="0.31"/>
<circle cx="166.5" cy="106.5" r="2.5" fill="white" fill-opacity="0.31"/>
<circle cx="183.5" cy="106.5" r="2.5" fill="white" fill-opacity="0.31"/>
<circle cx="200.5" cy="106.5" r="2.5" fill="white" fill-opacity="0.31"/>
<circle cx="149.5" cy="123.5" r="2.5" fill="white" fill-opacity="0.31"/>
<circle cx="166.5" cy="123.5" r="2.5" fill="white" fill-opacity="0.31"/>
<circle cx="183.5" cy="123.5" r="2.5" fill="white" fill-opacity="0.31"/>
<circle cx="200.5" cy="123.5" r="2.5" fill="white" fill-opacity="0.31"/>
<circle cx="149.5" cy="140.5" r="2.5" fill="white" fill-opacity="0.31"/>
<circle cx="166.5" cy="140.5" r="2.5" fill="white" fill-opacity="0.31"/>
<circle cx="183.5" cy="140.5" r="2.5" fill="white" fill-opacity="0.31"/>
<circle cx="200.5" cy="140.5" r="2.5" fill="white" fill-opacity="0.31"/>
<circle cx="149.5" cy="157.5" r="2.5" fill="white" fill-opacity="0.31"/>
<circle cx="166.5" cy="157.5" r="2.5" fill="white" fill-opacity="0.31"/>
<circle cx="183.5" cy="157.5" r="2.5" fill="white" fill-opacity="0.31"/>
<circle cx="200.5" cy="157.5" r="2.5" fill="white" fill-opacity="0.31"/>
<circle cx="149.5" cy="174.5" r="2.5" fill="white" fill-opacity="0.31"/>
<circle cx="166.5" cy="174.5" r="2.5" fill="white" fill-opacity="0.31"/>
<circle cx="183.5" cy="174.5" r="2.5" fill="white" fill-opacity="0.31"/>
<circle cx="200.5" cy="174.5" r="2.5" fill="white" fill-opacity="0.31"/>
<ellipse cx="1063.63" cy="179.435" rx="2.41071" ry="2.38889" transform="rotate(89.4194 1063.63 179.435)" fill="white" fill-opacity="0.31"/>
<ellipse cx="1063.8" cy="195.827" rx="2.41071" ry="2.38889" transform="rotate(89.4194 1063.8 195.827)" fill="white" fill-opacity="0.31"/>
<ellipse cx="1063.96" cy="212.219" rx="2.41071" ry="2.38889" transform="rotate(89.4194 1063.96 212.219)" fill="white" fill-opacity="0.31"/>
<ellipse cx="1064.13" cy="228.611" rx="2.41071" ry="2.38889" transform="rotate(89.4194 1064.13 228.611)" fill="white" fill-opacity="0.31"/>
<ellipse cx="1047.39" cy="179.599" rx="2.41071" ry="2.38889" transform="rotate(89.4194 1047.39 179.599)" fill="white" fill-opacity="0.31"/>
<ellipse cx="1047.55" cy="195.991" rx="2.41071" ry="2.38889" transform="rotate(89.4194 1047.55 195.991)" fill="white" fill-opacity="0.31"/>
<ellipse cx="1047.72" cy="212.383" rx="2.41071" ry="2.38889" transform="rotate(89.4194 1047.72 212.383)" fill="white" fill-opacity="0.31"/>
<ellipse cx="1047.89" cy="228.775" rx="2.41071" ry="2.38889" transform="rotate(89.4194 1047.89 228.775)" fill="white" fill-opacity="0.31"/>
<ellipse cx="1031.14" cy="179.764" rx="2.41071" ry="2.38889" transform="rotate(89.4194 1031.14 179.764)" fill="white" fill-opacity="0.31"/>
<ellipse cx="1031.31" cy="196.156" rx="2.41071" ry="2.38889" transform="rotate(89.4194 1031.31 196.156)" fill="white" fill-opacity="0.31"/>
<ellipse cx="1031.48" cy="212.548" rx="2.41071" ry="2.38889" transform="rotate(89.4194 1031.48 212.548)" fill="white" fill-opacity="0.31"/>
<ellipse cx="1031.64" cy="228.94" rx="2.41071" ry="2.38889" transform="rotate(89.4194 1031.64 228.94)" fill="white" fill-opacity="0.31"/>
<ellipse cx="1014.9" cy="179.929" rx="2.41071" ry="2.38889" transform="rotate(89.4194 1014.9 179.929)" fill="white" fill-opacity="0.31"/>
<ellipse cx="1015.07" cy="196.321" rx="2.41071" ry="2.38889" transform="rotate(89.4194 1015.07 196.321)" fill="white" fill-opacity="0.31"/>
<ellipse cx="1015.23" cy="212.713" rx="2.41071" ry="2.38889" transform="rotate(89.4194 1015.23 212.713)" fill="white" fill-opacity="0.31"/>
<ellipse cx="1015.4" cy="229.105" rx="2.41071" ry="2.38889" transform="rotate(89.4194 1015.4 229.105)" fill="white" fill-opacity="0.31"/>
<ellipse cx="998.657" cy="180.093" rx="2.41071" ry="2.38889" transform="rotate(89.4194 998.657 180.093)" fill="white" fill-opacity="0.31"/>
<ellipse cx="998.823" cy="196.485" rx="2.41071" ry="2.38889" transform="rotate(89.4194 998.823 196.485)" fill="white" fill-opacity="0.31"/>
<ellipse cx="998.989" cy="212.877" rx="2.41071" ry="2.38889" transform="rotate(89.4194 998.989 212.877)" fill="white" fill-opacity="0.31"/>
<ellipse cx="999.155" cy="229.269" rx="2.41071" ry="2.38889" transform="rotate(89.4194 999.155 229.269)" fill="white" fill-opacity="0.31"/>
<ellipse cx="982.413" cy="180.258" rx="2.41071" ry="2.38889" transform="rotate(89.4194 982.413 180.258)" fill="white" fill-opacity="0.31"/>
<ellipse cx="982.579" cy="196.65" rx="2.41071" ry="2.38889" transform="rotate(89.4194 982.579 196.65)" fill="white" fill-opacity="0.31"/>
<ellipse cx="982.745" cy="213.042" rx="2.41071" ry="2.38889" transform="rotate(89.4194 982.745 213.042)" fill="white" fill-opacity="0.31"/>
<ellipse cx="982.912" cy="229.434" rx="2.41071" ry="2.38889" transform="rotate(89.4194 982.912 229.434)" fill="white" fill-opacity="0.31"/>
<circle cx="1116.5" cy="100.5" r="49.5" fill="white" fill-opacity="0.05"/>
</g>
<defs>
<clipPath id="clip0_1_2">
<rect width="1320" height="312" fill="white"/>
</clipPath>
</defs>
</svg>
