<svg width="1897" height="1024" viewBox="0 0 1897 1024" fill="none" xmlns="http://www.w3.org/2000/svg">
<g clip-path="url(#clip0_1_2)">
<rect width="1897" height="1024" fill="url(#paint0_linear_1_2)"/>
<circle cx="-79" cy="212" r="515" fill="#E2E6F3" fill-opacity="0.37"/>
<circle cx="1947.5" cy="787.5" r="362.5" fill="#E2E6F3" fill-opacity="0.37"/>
<ellipse cx="207.532" cy="165.619" rx="2.53247" ry="2.61905" fill="#141837"/>
<ellipse cx="231.844" cy="165.619" rx="2.53247" ry="2.61905" fill="#141837"/>
<ellipse cx="256.156" cy="165.619" rx="2.53247" ry="2.61905" fill="#141837"/>
<ellipse cx="280.468" cy="165.619" rx="2.53247" ry="2.61905" fill="#141837"/>
<ellipse cx="207.532" cy="188.857" rx="2.53247" ry="2.61905" fill="#141837"/>
<ellipse cx="231.844" cy="188.857" rx="2.53247" ry="2.61905" fill="#141837"/>
<ellipse cx="256.156" cy="188.857" rx="2.53247" ry="2.61905" fill="#141837"/>
<ellipse cx="280.468" cy="188.857" rx="2.53247" ry="2.61905" fill="#141837"/>
<ellipse cx="207.532" cy="211.619" rx="2.53247" ry="2.61905" fill="#141837"/>
<ellipse cx="231.844" cy="211.619" rx="2.53247" ry="2.61905" fill="#141837"/>
<ellipse cx="256.156" cy="211.619" rx="2.53247" ry="2.61905" fill="#141837"/>
<ellipse cx="280.468" cy="211.619" rx="2.53247" ry="2.61905" fill="#141837"/>
<ellipse cx="207.532" cy="234.619" rx="2.53247" ry="2.61905" fill="#141837"/>
<ellipse cx="231.844" cy="234.619" rx="2.53247" ry="2.61905" fill="#141837"/>
<ellipse cx="256.156" cy="234.619" rx="2.53247" ry="2.61905" fill="#141837"/>
<ellipse cx="280.468" cy="234.619" rx="2.53247" ry="2.61905" fill="#141837"/>
<ellipse cx="207.532" cy="257.619" rx="2.53247" ry="2.61905" fill="#141837"/>
<ellipse cx="231.844" cy="257.619" rx="2.53247" ry="2.61905" fill="#141837"/>
<ellipse cx="256.156" cy="257.619" rx="2.53247" ry="2.61905" fill="#141837"/>
<ellipse cx="280.468" cy="257.619" rx="2.53247" ry="2.61905" fill="#141837"/>
</g>
<defs>
<linearGradient id="paint0_linear_1_2" x1="-634" y1="411.5" x2="-45" y2="395.5" gradientUnits="userSpaceOnUse">
<stop offset="0.604167" stop-color="#F5F5F5" stop-opacity="0"/>
<stop offset="1" stop-color="#F1F7FC"/>
</linearGradient>
<clipPath id="clip0_1_2">
<rect width="1897" height="1024" fill="white"/>
</clipPath>
</defs>
</svg>
